<svg xmlns="http://www.w3.org/2000/svg" width="13.229" height="15.677" viewBox="0 0 13.229 15.677">
  <g id="Group_5880" data-name="Group 5880" transform="translate(0 0)">
    <path id="Path_107" data-name="Path 107" d="M104.817,154.7c.232,0,.419.137.419.307v5.8c0,.169-.188.307-.419.307s-.419-.137-.419-.307v-5.8C104.4,154.84,104.586,154.7,104.817,154.7Zm0,0" transform="translate(-100.191 -147.645)" fill="#FFF"/>
    <path id="Path_649" data-name="Path 649" d="M104.817,154.7c.232,0,.419.137.419.307v5.8c0,.169-.188.307-.419.307s-.419-.137-.419-.307v-5.8C104.4,154.84,104.586,154.7,104.817,154.7Zm0,0" transform="translate(-98.215 -147.645)" fill="#FFF"/>
    <path id="Path_650" data-name="Path 650" d="M104.817,154.7c.232,0,.419.137.419.307v5.8c0,.169-.188.307-.419.307s-.419-.137-.419-.307v-5.8C104.4,154.84,104.586,154.7,104.817,154.7Zm0,0" transform="translate(-96.215 -147.645)" fill="#FFF"/>
    <path id="Path_108" data-name="Path 108" d="M1.08,4.666v9.046a1.984,1.984,0,0,0,.56,1.4A1.914,1.914,0,0,0,3,15.676H10.22a1.913,1.913,0,0,0,1.363-.567,1.984,1.984,0,0,0,.56-1.4V4.666a1.4,1.4,0,0,0,1.071-1.537,1.44,1.44,0,0,0-1.445-1.221H9.816V1.449A1.415,1.415,0,0,0,9.375.42,1.529,1.529,0,0,0,8.3,0H4.918A1.529,1.529,0,0,0,3.847.42a1.415,1.415,0,0,0-.44,1.029v.459H1.454A1.44,1.44,0,0,0,.009,3.129,1.4,1.4,0,0,0,1.08,4.666Zm9.14,10.276H3a1.182,1.182,0,0,1-1.16-1.23V4.7H11.38v9.014a1.182,1.182,0,0,1-1.16,1.23ZM4.17,1.449a.693.693,0,0,1,.217-.51A.75.75,0,0,1,4.918.733H8.3a.75.75,0,0,1,.531.206.693.693,0,0,1,.217.51v.459H4.17ZM1.454,2.642H11.769a.661.661,0,1,1,0,1.322H1.454a.661.661,0,1,1,0-1.322Zm0,0" transform="translate(0.003 0.001)" fill="#FFF"/>
  </g>
</svg>
